<svg xmlns="http://www.w3.org/2000/svg" viewBox="0 0 69 110" fill="currentColor"><g transform="translate(0,110) scale(0.1,-0.1)"><path d="M320 1089 c-115 -23 -223 -107 -276 -214 -27 -56 -29 -67 -28 -170 1 -119 20 -193 70 -268 41 -62 44 -34 6 65 -42 112 -48 216 -17 308 43 133 126 195 296 224 68 11 74 14 74 37 0 21 -5 24 -40 26 -22 1 -60 -3 -85 -8z"/><path d="M365 999 c-120 -20 -204 -79 -246 -172 -20 -43 -24 -69 -24 -147 0 -89 3 -101 43 -200 60 -147 57 -195 -18 -265 -41 -38 -60 -82 -60 -139 0 -77 -5 -76 299 -76 194 0 270 3 279 12 7 7 12 39 12 75 0 60 -2 64 -45 113 -53 60 -60 80 -45 144 22 98 -15 180 -126 280 -46 42 -74 75 -74 88 0 19 4 20 68 16 44 -3 89 -14 126 -31 l56 -26 35 47 c19 26 34 55 32 64 -3 22 -228 228 -247 227 -8 -1 -37 -5 -65 -10z"/></g></svg>
